<?xml version="1.0" standalone="no"?>
<!DOCTYPE svg PUBLIC "-//W3C//DTD SVG 20010904//EN"
 "http://www.w3.org/TR/2001/REC-SVG-20010904/DTD/svg10.dtd">
<svg version="1.0" xmlns="http://www.w3.org/2000/svg"
 width="1280.000000pt" height="1274.000000pt" viewBox="0 0 1280.000000 1274.000000"
 preserveAspectRatio="xMidYMid meet">
<metadata>
Created by potrace 1.15, written by Peter Selinger 2001-2017
</metadata>
<g transform="translate(0.000000,1274.000000) scale(0.100000,-0.100000)"
fill="#ffffff" stroke="none">
<path d="M6660 12643 c0 -234 -69 -491 -206 -766 -99 -200 -185 -334 -503
-792 -202 -291 -291 -435 -376 -610 -123 -252 -163 -397 -172 -622 -4 -108 -1
-166 12 -244 32 -193 128 -419 260 -608 l65 -95 0 125 c0 221 33 450 106 740
90 361 233 746 549 1479 186 432 288 702 338 895 27 107 31 136 31 265 1 88
-4 161 -11 186 -14 44 -70 134 -84 134 -5 0 -9 -39 -9 -87z"/>
<path d="M3331 11934 c143 -120 243 -325 304 -626 47 -234 55 -372 65 -1033
12 -879 21 -1035 70 -1288 106 -547 378 -770 853 -701 l39 6 -54 36 c-72 48
-195 173 -247 251 -115 170 -201 408 -250 694 -43 250 -60 486 -81 1177 -11
367 -23 550 -46 710 -56 401 -173 635 -372 743 -66 36 -189 67 -265 67 l-59 0
43 -36z"/>
<path d="M9704 11768 c-55 -123 -186 -300 -317 -429 -236 -233 -428 -355
-1174 -749 -400 -212 -593 -335 -795 -507 -359 -307 -570 -737 -595 -1215 l-6
-116 74 -37 c650 -326 1049 -770 1164 -1295 22 -105 31 -357 15 -472 -88 -658
-595 -1319 -1315 -1717 -402 -221 -885 -337 -1261 -302 -427 40 -753 195
-1039 492 -222 231 -386 515 -511 884 -42 125 -44 128 -38 70 45 -518 155
-889 371 -1252 399 -673 1141 -1073 1988 -1073 286 0 528 34 786 109 604 177
1098 530 1419 1013 247 373 372 774 387 1248 11 327 -37 682 -123 922 -65 180
-198 401 -338 560 -127 144 -312 316 -596 553 -287 239 -390 327 -476 405
l-51 46 13 103 c38 293 163 539 394 771 214 216 383 328 1074 714 376 210 550
331 705 485 136 137 218 273 262 436 18 64 22 109 23 220 0 80 -4 148 -10 158
-9 16 -13 13 -30 -25z"/>
<path d="M1016 9674 c-12 -4 5 -14 55 -31 327 -110 607 -388 877 -873 39 -69
158 -301 265 -516 271 -543 382 -724 560 -911 112 -117 197 -181 312 -238 157
-77 221 -90 435 -90 159 1 198 4 278 24 l93 23 -106 43 c-270 110 -499 296
-746 605 -111 138 -249 343 -469 695 -106 171 -229 364 -273 430 -335 502
-608 735 -962 821 -62 15 -286 27 -319 18z"/>
<path d="M11986 9459 c-43 -56 -145 -142 -221 -186 -147 -86 -344 -143 -600
-174 -138 -17 -606 -16 -920 1 -338 19 -884 20 -1025 2 -485 -63 -772 -232
-928 -547 -44 -88 -96 -241 -88 -261 9 -24 111 -84 175 -104 155 -49 262 -4
468 192 236 226 318 288 436 333 102 38 180 47 320 36 299 -24 745 -34 1021
-22 563 24 907 86 1153 206 139 68 218 137 265 233 29 58 33 76 33 147 0 74
-27 196 -44 195 -3 -1 -23 -23 -45 -51z"/>
<path d="M9665 7379 c-152 -22 -325 -83 -470 -166 -110 -63 -225 -143 -225
-157 1 -33 30 -195 40 -221 31 -82 75 -90 191 -36 457 211 916 178 1454 -104
123 -65 210 -117 490 -292 285 -177 401 -246 512 -302 335 -168 612 -203 867
-110 77 28 194 91 246 132 l25 20 -72 -6 c-97 -8 -305 9 -412 33 -352 78 -617
218 -1217 642 -379 268 -556 376 -758 462 -229 98 -466 135 -671 105z"/>
<path d="M113 6813 c-108 -105 -127 -138 -97 -160 22 -16 64 -16 239 2 261 27
446 16 542 -33 22 -11 52 -39 68 -62 40 -58 223 -230 346 -326 244 -191 512
-356 824 -509 425 -209 754 -309 1060 -322 303 -13 504 84 600 289 18 40 37
88 40 107 l7 34 -38 -7 c-363 -61 -756 -11 -1159 147 -210 82 -330 139 -790
372 -231 118 -482 241 -557 274 -311 138 -586 225 -828 265 -52 9 -109 18
-126 21 -29 5 -40 -3 -131 -92z"/>
<path d="M9285 5670 c-44 -12 -132 -46 -195 -77 l-115 -57 85 -6 c152 -12 274
-61 416 -169 203 -152 386 -392 704 -921 309 -514 361 -595 495 -775 261 -348
516 -543 785 -600 85 -18 263 -20 344 -4 l57 12 -93 24 c-275 69 -526 276
-767 633 -114 168 -203 325 -388 685 -360 697 -454 849 -647 1040 -108 108
-182 159 -292 202 -96 36 -271 42 -389 13z"/>
<path d="M4210 4755 c0 -3 -7 -41 -16 -83 -30 -147 -119 -285 -242 -376 -145
-106 -389 -187 -697 -230 -177 -25 -329 -35 -685 -46 -837 -25 -979 -34 -1187
-70 -359 -63 -540 -194 -560 -404 -3 -35 -3 -84 1 -110 l7 -46 40 50 c141 178
388 276 784 311 154 13 694 7 1005 -11 269 -16 779 -14 945 4 448 48 735 177
911 409 49 65 127 219 139 275 6 27 4 32 -12 32 -42 0 -127 56 -208 135 -46
46 -99 95 -118 109 -34 26 -107 61 -107 51z"/>
<path d="M8200 4605 c0 -24 89 -281 194 -562 263 -703 383 -1128 445 -1574 61
-431 58 -897 -7 -1285 l-18 -103 101 -68 c55 -37 153 -107 218 -155 64 -49
117 -86 117 -83 0 2 -23 35 -51 72 -65 87 -161 283 -193 395 -56 196 -58 371
-11 1078 72 1084 42 1537 -126 1875 -130 263 -314 385 -616 408 -29 2 -53 3
-53 2z"/>
<path d="M5435 3980 c4 -6 1 -69 -5 -140 -43 -515 -306 -872 -910 -1238 -63
-38 -250 -142 -415 -232 -505 -272 -667 -377 -832 -533 -113 -108 -181 -198
-232 -308 -64 -137 -75 -192 -76 -369 0 -85 4 -168 8 -184 8 -27 11 -24 52 68
113 252 314 481 596 678 171 119 277 177 769 424 245 123 506 260 581 304 464
277 736 597 855 1008 25 87 64 303 64 355 0 25 -3 27 -45 27 -101 0 -230 41
-336 106 -74 46 -84 51 -74 34z"/>
<path d="M6985 3795 c16 -48 35 -219 35 -315 -1 -466 -184 -963 -731 -1985
-278 -520 -374 -734 -386 -865 -5 -47 0 -69 31 -150 33 -86 143 -305 183 -366
8 -13 19 -22 23 -19 5 3 12 0 16 -6 4 -8 3 -9 -4 -5 -22 13 -12 -14 17 -46
l28 -32 7 61 c9 80 47 235 87 353 51 154 137 340 353 765 112 220 237 472 278
560 327 700 394 1220 222 1723 -20 59 -56 146 -80 194 -46 92 -91 166 -79 133z
m-905 -3575 c6 -11 8 -20 6 -20 -3 0 -10 9 -16 20 -6 11 -8 20 -6 20 3 0 10
-9 16 -20z m127 -52 c-3 -7 -5 -2 -5 12 0 14 2 19 5 13 2 -7 2 -19 0 -25z
m-77 -38 c6 -11 8 -20 6 -20 -3 0 -10 9 -16 20 -6 11 -8 20 -6 20 3 0 10 -9
16 -20z m67 -22 c-3 -7 -5 -2 -5 12 0 14 2 19 5 13 2 -7 2 -19 0 -25z m-9 -63
c-2 -12 -6 -11 -16 6 -8 11 -9 18 -3 14 6 -3 12 2 12 12 1 17 2 17 6 1 2 -10
3 -25 1 -33z"/>
</g>
</svg>
