<?xml version="1.0" standalone="no"?>
<!DOCTYPE svg PUBLIC "-//W3C//DTD SVG 20010904//EN"
 "http://www.w3.org/TR/2001/REC-SVG-20010904/DTD/svg10.dtd">
<svg version="1.0" xmlns="http://www.w3.org/2000/svg"
 width="320.000000pt" height="327.000000pt" viewBox="0 0 320.000000 327.000000"
 preserveAspectRatio="xMidYMid meet">

<g transform="translate(0.000000,327.000000) scale(0.100000,-0.100000)"
fill="#000000" stroke="none">
<path d="M1415 2870 c-158 -25 -339 -93 -475 -178 -386 -244 -604 -655 -587
-1107 7 -184 39 -320 113 -483 113 -249 357 -493 607 -607 337 -153 717 -153
1054 0 251 115 493 357 608 608 137 301 152 624 44 935 -22 64 -41 125 -42
134 -1 9 -3 15 -5 13 -3 -2 -26 32 -53 77 -182 302 -441 494 -789 585 -77 20
-125 25 -255 28 -88 2 -187 0 -220 -5z m305 -50 c142 -15 270 -53 405 -120
290 -143 488 -368 600 -680 61 -171 79 -433 42 -610 -81 -380 -318 -684 -660
-845 -700 -331 -1512 79 -1673 845 -25 116 -25 344 0 458 49 231 148 420 305
585 220 232 523 366 846 375 22 1 83 -3 135 -8z"/>
<path d="M1387 2794 c-150 -27 -320 -98 -452 -187 -94 -64 -241 -212 -305
-309 -141 -211 -202 -413 -202 -668 0 -554 389 -1028 942 -1146 117 -25 343
-25 460 0 477 102 834 466 926 944 22 113 22 309 0 423 -44 235 -159 449 -327
617 -173 170 -368 276 -594 321 -122 24 -332 27 -448 5z m213 -31 c0 -15 -2
-16 -10 -3 -6 9 -10 10 -10 3 0 -6 5 -15 10 -18 6 -3 10 -12 10 -18 0 -8 -3
-7 -9 2 -7 11 -10 10 -14 -5 -2 -10 -5 -2 -6 19 -1 27 3 37 14 37 8 0 15 -8
15 -17z m17 -35 c-2 -13 -4 -5 -4 17 -1 22 1 32 4 23 2 -10 2 -28 0 -40z m33
42 c-13 -9 -13 -11 0 -20 10 -6 11 -10 3 -10 -25 0 -13 -19 15 -23 25 -4 25
-4 -5 -6 -31 -1 -33 1 -33 34 0 27 4 35 18 35 14 0 15 -2 2 -10z m-90 -42 c0
-18 -26 5 -27 25 -2 21 -1 21 13 3 8 -11 14 -23 14 -28z m123 22 c3 -11 1 -18
-4 -14 -5 3 -9 12 -9 20 0 20 7 17 13 -6z m382 -70 c4 -6 11 -8 16 -5 5 3 6
-1 3 -10 -6 -14 -8 -14 -19 2 -8 10 -17 14 -21 10 -5 -4 -3 -12 5 -16 9 -6 7
-10 -9 -14 -16 -4 -20 -2 -16 10 3 8 6 19 6 24 0 12 27 12 35 -1z m-928 -25
c0 -8 -4 -12 -8 -9 -4 2 -7 -8 -6 -23 2 -26 -1 -28 -31 -26 -21 1 -30 -2 -26
-9 4 -6 3 -8 -4 -4 -5 3 -12 1 -14 -5 -2 -6 -9 1 -16 16 -7 14 -8 23 -2 20 5
-3 10 0 10 7 0 9 3 9 10 -2 9 -13 12 -13 24 3 14 18 14 17 21 -2 7 -24 25 -28
25 -6 0 8 -5 15 -12 15 -6 0 -3 9 7 20 22 24 22 24 22 5z m979 3 c4 -7 3 -8
-4 -4 -7 4 -12 1 -12 -7 0 -22 12 -28 28 -14 13 11 14 9 1 -11 -12 -20 -12
-24 1 -32 11 -7 20 -3 32 13 14 19 19 20 30 8 11 -11 11 -13 0 -6 -15 8 -44
-24 -35 -38 3 -5 -6 -2 -20 7 -28 19 -53 69 -42 85 8 14 12 14 21 -1z m-951
-27 c3 -5 2 -12 -3 -15 -5 -3 -9 1 -9 9 0 17 3 19 12 6z m489 -32 c-3 -5 -10
-7 -15 -3 -5 3 -7 10 -3 15 3 5 10 7 15 3 5 -3 7 -10 3 -15z m32 -16 c-11 -11
-17 4 -9 23 7 18 8 18 11 1 2 -10 1 -21 -2 -24z m-173 12 c4 -8 2 -17 -3 -20
-6 -4 -10 3 -10 14 0 25 6 27 13 6z m32 5 c11 9 12 7 8 -9 -4 -17 -23 -31 -23
-17 0 2 -2 10 -3 18 -2 7 -2 9 1 5 2 -4 10 -3 17 3z m188 -10 c4 0 5 5 1 12
-4 7 -3 8 5 4 9 -6 9 -11 0 -22 -6 -8 -12 -13 -13 -12 -1 2 -8 12 -16 23 -12
17 -12 18 0 8 8 -7 18 -13 23 -13z m-690 -39 c-4 -6 -43 30 -43 40 0 5 10 -2
23 -14 13 -12 22 -24 20 -26z m547 45 c0 -2 -7 -9 -15 -16 -13 -11 -14 -10 -9
4 5 14 24 23 24 12z m634 -4 c3 -5 -1 -9 -9 -9 -8 0 -12 4 -9 9 3 4 7 8 9 8 2
0 6 -4 9 -8z m-1221 -30 c16 -17 16 -19 0 -19 -17 0 -33 14 -33 30 0 13 16 7
33 -11z m924 -4 c-3 -8 -6 -5 -6 6 -1 11 2 17 5 13 3 -3 4 -12 1 -19z m-970 5
c-4 -3 1 -16 10 -27 18 -21 18 -21 -3 -3 -11 9 -25 14 -29 10 -5 -5 -3 0 4 10
7 9 16 17 19 17 3 0 2 -3 -1 -7z m1253 -8 c0 -17 -25 -20 -35 -5 -3 6 1 7 9 4
9 -3 16 -1 16 5 0 6 2 11 5 11 3 0 5 -7 5 -15z m-200 -6 c11 -8 9 -9 -10 -3
-22 6 -23 5 -11 -10 12 -14 12 -16 -3 -10 -17 6 -20 16 -9 27 9 9 15 9 33 -4z
m-753 -14 c5 -4 2 -5 -6 0 -11 6 -13 4 -7 -11 4 -10 4 -15 0 -12 -3 4 -13 1
-20 -7 -17 -17 -40 -10 -49 13 -5 14 -4 15 6 5 19 -19 39 -16 39 6 0 19 22 23
37 6z m698 5 c-3 -5 -12 -10 -18 -10 -7 0 -6 4 3 10 19 12 23 12 15 0z m129
-36 c3 -8 2 -12 -4 -9 -6 3 -10 10 -10 16 0 14 7 11 14 -7z m-939 -14 c-5 -16
-3 -19 12 -14 15 5 16 4 3 -5 -21 -15 -27 -14 -33 9 -3 11 -1 18 4 14 5 -3 9
0 9 5 0 6 3 11 6 11 3 0 3 -9 -1 -20z m388 -7 c8 -10 19 -31 23 -47 l7 -29 21
44 c18 38 25 44 51 44 25 0 30 -4 30 -24 0 -13 -7 -26 -15 -29 -12 -4 -13 -2
-2 9 21 23 14 41 -15 37 -25 -3 -31 -11 -50 -68 -14 -41 -23 -56 -23 -40 -1
43 -37 110 -59 110 -29 0 -36 -18 -15 -41 15 -17 15 -19 2 -14 -22 9 -31 35
-17 51 16 19 43 17 62 -3z m561 -15 c-3 -4 -9 -8 -15 -8 -5 0 -9 4 -9 8 0 5 7
9 15 9 8 0 12 -4 9 -9z m-977 -12 c0 -7 -10 -13 -21 -12 -12 1 -21 -5 -21 -11
0 -7 -4 -13 -9 -12 -5 0 -13 -5 -18 -13 -8 -10 -9 -9 -5 4 3 9 3 19 -1 21 -4
2 -1 2 5 1 7 -2 16 3 20 10 5 8 17 16 28 19 11 2 20 5 21 6 0 0 1 -5 1 -13z
m1021 0 c-10 -7 -14 -17 -10 -22 4 -4 -1 -2 -12 6 -18 14 -18 15 5 21 35 10
36 10 17 -5z m22 -22 c0 -8 -5 -12 -10 -9 -6 4 -8 11 -5 16 9 14 15 11 15 -7z
m-1135 -24 c3 -6 -1 -7 -9 -4 -18 7 -21 14 -7 14 6 0 13 -4 16 -10z m1165 6
c0 -3 -4 -8 -10 -11 -5 -3 -10 -1 -10 4 0 6 5 11 10 11 6 0 10 -2 10 -4z
m-219 -41 c14 -37 39 -48 39 -17 0 10 7 27 16 38 15 18 15 18 5 -3 -16 -32
-13 -53 7 -54 16 -1 16 -2 0 -6 -21 -5 -24 -43 -5 -62 10 -11 9 -13 -3 -9 -8
3 -16 19 -18 36 -4 37 -32 45 -32 9 0 -23 -29 -72 -30 -50 0 6 5 15 10 18 18
11 12 55 -7 56 -17 1 -17 2 0 6 21 6 22 22 1 51 -8 12 -11 22 -5 22 5 0 15
-16 22 -35z m-951 15 c8 -5 11 -10 5 -10 -5 0 -17 5 -25 10 -8 5 -10 10 -5 10
6 0 17 -5 25 -10z m140 -15 c7 -8 23 -15 35 -15 12 0 28 7 35 15 7 8 20 15 29
14 11 0 9 -3 -6 -9 -27 -11 -28 -19 -6 -58 16 -28 16 -31 0 -56 -20 -30 -61
-35 -89 -9 -22 20 -23 51 -3 80 15 22 9 33 -25 46 -13 5 -12 6 1 6 9 1 22 -6
29 -14z m1342 -87 c-18 -18 -15 -33 3 -18 13 11 18 11 28 0 9 -10 9 -11 -1 -6
-7 4 -19 3 -26 -3 -9 -7 -17 -5 -29 9 -16 19 -11 25 16 21 4 0 7 4 7 11 0 6 3
8 7 5 4 -4 1 -13 -5 -19z m-1785 -43 c0 -8 -4 -15 -9 -15 -4 0 -8 5 -8 11 0 5
-5 7 -10 4 -8 -5 -8 -11 0 -20 8 -9 8 -15 0 -20 -6 -3 -7 -12 -4 -18 4 -7 3
-8 -2 -4 -5 5 -9 18 -9 30 0 11 -6 22 -14 25 -9 3 -11 0 -6 -8 5 -9 4 -11 -4
-6 -16 10 -4 26 19 26 14 0 18 6 15 21 -4 20 -3 20 14 5 10 -9 18 -23 18 -31z
m135 -3 c-4 -11 -1 -13 9 -8 8 4 5 0 -5 -8 -11 -9 -16 -16 -12 -16 5 0 3 -7
-4 -15 -12 -14 -43 -16 -56 -2 -4 3 6 4 21 1 26 -5 27 -3 14 12 -8 10 -9 15
-3 11 12 -7 28 19 19 32 -2 4 2 8 9 8 8 0 12 -7 8 -15z m1684 -7 c-1 -8 -5
-17 -8 -21 -5 -4 -4 16 1 34 3 9 9 -1 7 -13z m-154 -27 c-8 -8 -9 -4 -5 13 4
13 8 18 11 10 2 -7 -1 -18 -6 -23z m-1722 -10 c0 -6 -6 -5 -15 2 -8 7 -15 14
-15 16 0 2 7 1 15 -2 8 -4 15 -11 15 -16z m1910 8 c0 -2 -7 -7 -16 -10 -8 -3
-12 -2 -9 4 6 10 25 14 25 6z m-1930 -26 c0 -5 8 -7 18 -3 11 3 9 0 -6 -11
-12 -10 -20 -22 -17 -27 7 -11 3 -11 -19 -3 -9 3 -16 14 -16 23 0 13 2 13 9 2
5 -7 14 -10 20 -6 9 5 7 11 -6 21 -17 12 -17 13 0 14 9 0 17 -4 17 -10z m1785
0 c-3 -5 0 -10 7 -10 8 0 5 -5 -6 -11 -14 -9 -21 -8 -32 5 -8 9 -9 11 -2 6 14
-12 28 -13 27 -2 -2 12 1 22 7 22 3 0 2 -4 -1 -10z m165 7 c0 -2 -9 -12 -19
-21 -19 -17 -19 -17 -16 1 2 10 4 19 4 21 1 3 31 2 31 -1z m-1813 -30 c0 -8
-6 -14 -13 -14 -7 0 -10 6 -7 14 3 7 8 13 12 13 4 0 8 -6 8 -13z m38 3 c-3 -5
-12 -10 -18 -10 -7 0 -6 4 3 10 19 12 23 12 15 0z m1639 -26 c3 -8 2 -12 -4
-9 -6 3 -10 10 -10 16 0 14 7 11 14 -7z m156 -8 c-1 -5 4 -13 12 -18 9 -7 7
-8 -8 -4 -15 5 -21 2 -21 -11 0 -10 5 -22 11 -26 7 -6 6 -7 -4 -4 -8 2 -15 10
-15 18 0 8 -6 19 -14 25 -10 8 -11 13 -2 18 6 4 9 12 6 17 -4 5 3 5 15 1 12
-4 21 -12 20 -16z m-1950 6 c0 -5 -7 -17 -15 -28 -10 -12 -14 -14 -13 -4 4 22
28 49 28 32z m-46 -41 c-5 -6 -34 20 -34 30 0 5 8 1 18 -8 10 -10 17 -20 16
-22z m176 29 c0 -5 -2 -10 -4 -10 -3 0 -8 5 -11 10 -3 6 -1 10 4 10 6 0 11 -4
11 -10z m-43 -26 c-3 -3 -12 -4 -19 -1 -8 3 -5 6 6 6 11 1 17 -2 13 -5z m160
-34 c14 0 36 8 47 18 21 17 21 17 4 -4 -10 -11 -18 -33 -18 -48 0 -15 8 -39
18 -54 l17 -27 -29 23 c-31 24 -57 22 -89 -6 -16 -15 -17 -14 -11 1 3 9 10 17
15 17 15 0 10 77 -6 90 -8 7 -15 16 -15 21 0 5 9 0 20 -11 11 -11 32 -20 47
-20z m1353 25 c0 -14 3 -14 24 0 19 13 25 13 29 3 3 -10 8 -11 26 0 27 16 31
15 30 -5 0 -11 -3 -13 -6 -6 -3 9 -10 9 -28 -3 -18 -12 -24 -12 -28 -2 -3 10
-8 11 -26 1 -27 -17 -31 -16 -31 2 0 14 -3 13 -27 -1 l-28 -16 24 21 c28 25
41 27 41 6z m-1501 -8 c-9 -7 -14 -17 -12 -24 5 -15 -33 -37 -42 -23 -3 5 -1
10 5 10 6 0 8 5 5 10 -3 6 -1 10 5 10 6 0 8 5 4 12 -4 6 -3 8 2 5 6 -3 16 -2
24 4 22 13 28 10 9 -4z m601 3 c0 -5 -4 -10 -10 -10 -5 0 -10 5 -10 10 0 6 5
10 10 10 6 0 10 -4 10 -10z m1281 -17 c10 -11 10 -14 2 -9 -8 4 -13 1 -13 -8
0 -18 -25 -22 -35 -6 -3 6 1 7 9 4 14 -6 21 5 17 29 -2 12 6 8 20 -10z m-117
-72 c-5 -6 -24 10 -35 32 -10 20 -9 20 14 -3 13 -14 23 -27 21 -29z m-264 19
c0 -7 7 -7 21 0 14 8 24 8 32 1 8 -6 18 -6 27 -1 22 14 30 12 29 -7 0 -11 -3
-13 -6 -6 -3 10 -10 10 -25 2 -15 -8 -22 -8 -28 1 -6 9 -12 9 -29 -2 -18 -11
-23 -11 -31 2 -7 12 -12 12 -22 2 -6 -6 -16 -12 -22 -12 -14 0 27 29 42 30 6
0 12 -5 12 -10z m-1540 -40 c0 -5 -5 -10 -11 -10 -5 0 -7 5 -4 10 3 6 8 10 11
10 2 0 4 -4 4 -10z m-50 -176 c0 -2 -9 -4 -20 -4 -11 0 -20 4 -20 9 0 5 9 7
20 4 11 -3 20 -7 20 -9z m2027 -10 c-3 -3 -12 -4 -19 -1 -8 3 -5 6 6 6 11 1
17 -2 13 -5z m31 -19 c-3 -3 -9 2 -12 12 -6 14 -5 15 5 6 7 -7 10 -15 7 -18z
m-1128 -25 c0 -23 -7 -52 -16 -65 -15 -23 -15 -25 0 -25 13 0 16 -13 16 -75 0
-84 -5 -88 -66 -59 -63 30 -93 121 -63 187 12 27 84 77 111 77 14 0 18 -8 18
-40z m-945 2 c0 -24 -3 -28 -22 -24 -24 5 -22 22 3 22 8 0 13 3 13 8 -2 10 0
22 4 22 2 0 3 -13 2 -28z m1905 14 c0 -3 -4 -8 -10 -11 -5 -3 -10 -1 -10 4 0
6 5 11 10 11 6 0 10 -2 10 -4z m-2033 -12 c-3 -3 -12 -4 -19 -1 -8 3 -5 6 6 6
11 1 17 -2 13 -5z m1810 -30 l16 -26 14 26 c8 14 17 26 22 26 11 0 21 -36 21
-77 0 -32 12 -43 25 -23 10 15 45 12 51 -5 9 -22 -15 -47 -41 -43 -12 1 -30
-5 -39 -15 -19 -19 -42 -22 -50 -8 -4 5 2 7 12 4 31 -8 42 18 34 81 -8 65 -22
76 -37 29 -15 -46 -25 -51 -25 -15 0 19 -8 40 -20 52 -11 11 -16 20 -10 20 5
0 17 -12 27 -26z m253 16 c0 -5 -8 -10 -17 -10 -15 0 -16 2 -3 10 19 12 20 12
20 0z m135 1 c-8 -14 -44 -20 -39 -7 2 6 14 12 24 13 11 1 18 -2 15 -6z
m-2202 -8 c-7 -2 -19 -2 -25 0 -7 3 -2 5 12 5 14 0 19 -2 13 -5z m-34 -19 c6
4 11 2 11 -3 0 -6 -9 -11 -20 -11 -12 0 -20 7 -20 18 0 13 2 14 9 3 5 -7 14
-10 20 -7z m2249 -31 c0 -21 -3 -32 -5 -25 -3 6 -9 12 -14 12 -6 0 -7 -4 -4
-10 3 -5 2 -10 -3 -10 -20 0 -21 29 -1 35 12 4 18 12 15 21 -3 8 -1 14 3 14 5
0 9 -17 9 -37z m-28 17 c0 -5 -2 -10 -4 -10 -3 0 -8 5 -11 10 -3 6 -1 10 4 10
6 0 11 -4 11 -10z m-2236 -25 c3 -8 1 -15 -4 -15 -6 0 -10 7 -10 15 0 8 2 15
4 15 2 0 6 -7 10 -15z m333 9 c-3 -3 -12 -4 -19 -1 -8 3 -5 6 6 6 11 1 17 -2
13 -5z m1791 -30 c0 -24 -1 -24 -18 -4 -9 11 -20 17 -24 13 -3 -3 -6 -1 -6 5
0 12 20 21 36 15 6 -2 12 -15 12 -29z m-1822 0 c9 -36 -15 -60 -45 -45 -26 14
-27 46 -3 60 28 17 41 13 48 -15z m91 9 c10 -10 14 -15 8 -11 -6 4 -22 12 -36
17 -15 6 -18 10 -8 10 9 1 25 -7 36 -16z m-353 -23 c-7 -7 -19 -7 -35 -1 -23
9 -22 10 11 10 23 1 31 -2 24 -9z m2214 -7 c-10 -2 -26 -2 -35 0 -10 3 -2 5
17 5 19 0 27 -2 18 -5z m-2223 -13 c17 -7 14 -9 -13 -9 -20 -1 -31 3 -27 9 7
12 13 12 40 0z m379 -23 c30 -49 -106 -80 -155 -36 l-24 21 27 -16 c15 -9 43
-16 62 -16 29 0 33 3 29 20 -13 48 35 69 61 27z m1854 -2 c-3 -3 -9 2 -12 12
-6 14 -5 15 5 6 7 -7 10 -15 7 -18z m-2098 5 c-13 -9 -13 -11 -1 -19 8 -5 15
-20 17 -34 2 -24 1 -24 -15 -9 -15 15 -15 18 -1 24 11 5 9 7 -7 7 -13 1 -23 5
-23 9 0 12 22 32 35 32 5 0 3 -5 -5 -10z m-126 -15 c7 -18 -39 -22 -50 -4 -4
8 1 9 16 4 15 -5 20 -4 16 4 -4 6 -3 11 2 11 6 0 12 -7 16 -15z m2080 -16 c-7
-12 -41 -16 -41 -5 0 6 10 11 23 11 12 0 20 -3 18 -6z m99 4 c-22 -8 -14 -23
12 -23 25 0 34 14 15 23 -6 3 -5 4 2 3 7 -2 13 -9 13 -17 0 -17 -43 -25 -57
-11 -12 12 -2 32 15 31 9 0 9 -2 0 -6z m-2163 -27 c0 -23 -40 -31 -59 -11 -15
16 -15 16 8 4 20 -12 25 -12 35 4 13 21 16 21 16 3z m2193 -23 c-7 -2 -19 -2
-25 0 -7 3 -2 5 12 5 14 0 19 -2 13 -5z m-2082 -20 c-10 -4 -10 -7 -1 -13 9
-5 8 -9 -2 -13 -9 -3 -14 2 -15 14 -1 12 4 19 15 18 12 0 13 -2 3 -6z m1933
-8 c-6 -16 -24 -21 -24 -7 0 11 11 22 21 22 5 0 6 -7 3 -15z m116 11 c0 -3 -4
-8 -10 -11 -5 -3 -10 -1 -10 4 0 6 5 11 10 11 6 0 10 -2 10 -4z m37 -2 c-3 -3
-12 -4 -19 -1 -8 3 -5 6 6 6 11 1 17 -2 13 -5z m-7 -24 c-20 -13 -33 -13 -25
0 3 6 14 10 23 10 15 0 15 -2 2 -10z m-250 -120 c0 -5 -4 -10 -10 -10 -5 0
-10 5 -10 10 0 6 5 10 10 10 6 0 10 -4 10 -10z m-1880 -20 c0 -5 -4 -10 -10
-10 -5 0 -10 5 -10 10 0 6 5 10 10 10 6 0 10 -4 10 -10z m360 -25 c11 -13 11
-26 0 -71 -14 -57 -10 -68 25 -77 19 -4 19 -5 -1 -6 -39 -2 -49 23 -34 83 14
59 9 76 -21 76 -28 0 -32 -20 -14 -64 25 -59 0 -100 -46 -75 -31 16 -22 63 13
67 25 3 26 5 16 27 -6 13 -8 31 -5 39 8 20 51 21 67 1z m1394 -30 c7 -30 7
-30 -9 -7 -9 12 -26 23 -38 23 -17 1 -15 3 8 8 17 4 30 7 31 7 1 -1 4 -14 8
-31z m-1649 -5 c3 -5 1 -10 -4 -10 -6 0 -11 5 -11 10 0 6 2 10 4 10 3 0 8 -4
11 -10z m1619 -2 c-4 -7 -13 -20 -21 -30 -13 -14 -12 -18 4 -28 16 -10 15 -10
-6 -4 -17 4 -21 3 -16 -6 5 -8 4 -11 -3 -6 -6 3 -18 -4 -26 -16 -9 -12 -16
-19 -16 -14 0 4 9 19 20 33 19 24 19 26 3 39 -10 7 -13 14 -7 14 5 0 15 -5 21
-11 7 -7 15 -2 27 15 17 26 33 37 20 14z m191 2 c3 -6 -1 -7 -9 -4 -18 7 -21
14 -7 14 6 0 13 -4 16 -10z m-1780 -30 c-3 -4 1 -10 7 -13 7 -3 3 -4 -9 -4
-12 1 -19 5 -17 9 3 4 -1 8 -8 8 -10 0 -9 3 2 9 16 11 33 4 25 -9z m1770 10
c3 -6 -1 -7 -9 -4 -18 7 -21 14 -7 14 6 0 13 -4 16 -10z m113 -14 c-2 -7 8
-23 22 -34 21 -18 22 -21 7 -22 -10 0 -15 5 -12 10 4 7 -3 9 -22 5 -20 -4 -23
-3 -9 3 13 6 16 11 8 16 -6 3 -9 13 -5 21 7 19 15 20 11 1z m-110 -24 c-10 -2
-18 -8 -18 -13 0 -6 4 -7 10 -4 6 4 7 -1 3 -11 -5 -14 -8 -13 -19 7 -14 27 -2
42 25 31 14 -6 14 -7 -1 -10z m-1744 -11 c3 -5 -6 -11 -21 -14 -26 -5 -26 -4
-8 9 22 17 22 17 29 5z m1864 -33 c7 -7 12 -19 11 -27 0 -10 -4 -6 -10 8 -7
17 -15 22 -29 18 -11 -3 -18 -1 -14 4 7 13 28 11 42 -3z m-154 -13 c3 -8 1
-15 -3 -15 -5 0 -11 7 -15 15 -3 8 -1 15 3 15 5 0 11 -7 15 -15z m-1126 -20
c-3 -3 -9 2 -12 12 -6 14 -5 15 5 6 7 -7 10 -15 7 -18z m1253 8 c-11 -4 -9 -8
7 -17 l21 -11 -23 -39 c-18 -30 -24 -35 -29 -22 -4 10 -3 14 2 11 22 -13 22
19 0 37 -22 17 -22 18 -2 9 27 -13 33 -14 33 -2 0 5 -10 13 -21 16 -17 6 -19
9 -8 16 8 5 19 8 24 8 6 0 4 -3 -4 -6z m-1811 -7 c0 -2 -8 -10 -17 -17 -16
-13 -17 -12 -4 4 13 16 21 21 21 13z m-130 -19 c0 -7 -5 -18 -11 -24 -8 -8 -7
-13 1 -18 7 -4 15 -3 19 3 4 7 11 5 18 -7 10 -16 7 -23 -15 -42 l-27 -24 23
26 c26 30 18 45 -14 24 -17 -11 -25 -12 -30 -3 -4 6 -3 8 4 4 6 -3 13 -2 17 4
3 5 -5 14 -19 20 -25 9 -34 29 -19 43 12 12 53 7 53 -6z m134 -28 c-3 -5 -10
-7 -15 -3 -5 3 -7 10 -3 15 3 5 10 7 15 3 5 -3 7 -10 3 -15z m96 -9 c0 -5 -5
-10 -11 -10 -5 0 -7 5 -4 10 3 6 8 10 11 10 2 0 4 -4 4 -10z m-45 -11 c3 -5 0
-6 -8 -3 -8 3 -18 0 -22 -5 -3 -6 -11 -9 -16 -5 -5 3 -7 9 -5 13 7 10 45 11
51 0z m1546 -2 c-6 -8 -8 -16 -5 -20 9 -9 35 4 28 14 -3 5 -3 9 0 9 3 0 7 -4
11 -10 3 -5 -8 -16 -24 -25 -28 -14 -30 -14 -24 2 4 11 3 14 -6 9 -9 -6 -9 -3
1 13 7 12 17 21 22 21 4 0 3 -6 -3 -13z m169 -22 c21 -22 22 -25 5 -25 -10 0
-15 3 -12 7 4 3 0 15 -10 25 -25 28 -10 22 17 -7z m-1710 -9 c0 -2 -7 -7 -16
-10 -8 -3 -12 -2 -9 4 6 10 25 14 25 6z m1684 -2 c-14 -6 -6 -44 8 -44 5 0 6
5 2 12 -4 7 -3 8 5 4 14 -9 5 -26 -15 -26 -8 0 -13 -4 -9 -9 10 -17 -12 -21
-31 -6 -18 15 -18 15 1 9 19 -5 19 -5 2 9 -18 15 -18 15 2 22 11 3 20 9 20 13
-3 16 2 22 14 21 8 0 8 -2 1 -5z m-1399 -14 c4 -6 12 -7 18 -3 7 4 22 9 35 11
19 2 22 -2 24 -30 0 -18 0 -46 -1 -62 -2 -19 1 -26 9 -21 8 5 10 21 7 41 -4
21 -2 32 4 29 14 -10 11 -61 -6 -75 -8 -7 -13 -16 -10 -20 2 -4 -8 -5 -23 -2
-19 4 -22 7 -9 10 14 3 17 14 17 63 0 73 -19 79 -22 7 l-1 -53 -7 55 c-6 59
-17 52 -23 -15 -4 -40 -4 -40 -5 7 -1 33 -7 50 -19 57 -10 6 -13 11 -6 11 6 0
15 -5 18 -10z m816 -26 c2 3 2 -19 -1 -47 l-5 -52 -3 45 c-2 24 -9 51 -15 60
-10 13 -10 13 4 3 9 -7 18 -11 20 -9z m69 -49 c0 -58 2 -65 20 -65 11 0 20 -4
20 -10 0 -5 -9 -6 -22 -1 -20 7 -24 17 -28 72 -5 59 -13 64 -22 14 -3 -14 -6
-10 -9 12 -3 18 -2 30 2 27 4 -2 10 0 14 6 16 25 25 5 25 -55z m474 -7 c8 -5
7 -8 -1 -8 -7 0 -11 -6 -9 -12 1 -7 1 -10 -1 -5 -3 4 -13 7 -23 7 -23 0 -35
16 -19 26 8 4 9 3 5 -4 -5 -8 1 -12 15 -12 18 0 20 3 11 12 -7 7 -12 19 -12
28 1 11 4 10 12 -5 6 -11 16 -23 22 -27z m-829 -38 c11 -12 16 -29 13 -44 -4
-19 0 -26 16 -29 12 -3 7 -5 -13 -6 -27 -1 -32 2 -23 11 29 29 1 78 -44 78
-32 0 -54 -42 -36 -71 11 -17 9 -19 -20 -18 -21 1 -25 3 -12 6 16 3 20 10 16
29 -6 32 23 64 58 64 15 0 35 -9 45 -20z m-628 -43 c0 -7 -9 -14 -20 -14 -19
-2 -19 -2 -1 12 11 8 19 15 20 15 0 0 1 -6 1 -13z m1134 -6 c-9 -6 -10 -11 -2
-15 6 -4 11 -11 11 -17 0 -5 -8 -1 -18 9 -16 15 -16 18 -2 29 8 6 17 9 20 7 2
-3 -2 -9 -9 -13z m-1070 -28 c13 -16 12 -17 -3 -4 -10 7 -18 15 -18 17 0 8 8
3 21 -13z m-34 -8 c0 -8 -4 -12 -9 -9 -5 3 -6 10 -3 15 9 13 12 11 12 -6z m98
-28 c15 5 39 -37 27 -49 -6 -6 -12 0 -16 16 -4 17 -11 23 -21 20 -8 -4 -12
-10 -9 -15 3 -5 -3 -6 -12 -2 -11 4 -13 8 -6 11 7 2 12 11 12 20 0 13 -2 14
-9 3 -5 -8 -11 -9 -15 -3 -9 15 17 22 29 7 6 -6 15 -10 20 -8z m976 0 c-10 -9
-11 -8 -5 6 3 10 9 15 12 12 3 -3 0 -11 -7 -18z m-64 -19 c-3 -7 -5 -2 -5 12
0 14 2 19 5 13 2 -7 2 -19 0 -25z m-409 15 c-27 -2 -69 -2 -95 0 -27 2 -5 3
47 3 52 0 74 -1 48 -3z m357 -23 c-3 -5 -1 -10 4 -10 6 0 11 -5 11 -12 0 -6
-3 -8 -7 -5 -3 4 -15 0 -25 -10 -22 -20 -24 -11 -2 11 12 12 12 16 2 16 -10 0
-9 3 2 10 19 12 23 12 15 0z m-795 -20 c-6 -11 -13 -20 -16 -20 -2 0 0 9 6 20
6 11 13 20 16 20 2 0 0 -9 -6 -20z m753 5 c-3 -9 -8 -14 -10 -11 -3 3 -2 9 2
15 9 16 15 13 8 -4z m280 -8 c19 -7 22 -22 7 -32 -6 -3 -7 1 -4 9 4 12 0 16
-16 16 -19 0 -21 -2 -10 -15 10 -13 11 -18 1 -28 -10 -9 -11 -9 -6 4 7 19 -19
44 -36 33 -8 -5 -9 -3 -5 5 5 7 14 10 22 7 9 -3 14 1 14 12 0 10 3 13 8 6 4
-6 15 -13 25 -17z m-1005 -7 c-7 -10 -14 -17 -17 -15 -4 4 18 35 25 35 2 0 -1
-9 -8 -20z m699 -17 c-3 -10 -5 -4 -5 12 0 17 2 24 5 18 2 -7 2 -21 0 -30z
m-937 11 c0 -8 4 -13 9 -9 5 3 13 1 16 -5 4 -6 3 -10 -2 -9 -4 1 -21 -3 -36
-9 -30 -13 -48 -9 -46 11 0 9 2 9 6 0 3 -9 10 -10 24 -3 25 14 25 34 -1 27
-11 -3 -18 -1 -14 4 9 15 44 10 44 -7z m1146 -38 c-5 -21 -3 -24 19 -22 13 2
22 -1 19 -5 -3 -5 -16 -7 -30 -5 -13 3 -24 0 -24 -5 0 -5 6 -9 13 -9 6 0 1 -6
-13 -13 -39 -20 -61 -18 -49 5 5 10 15 18 22 18 8 0 7 -4 -3 -10 -8 -5 -11
-12 -7 -16 4 -4 12 -3 18 3 15 15 3 47 -12 37 -8 -4 -9 -3 -5 4 4 6 14 8 23 5
12 -5 14 -3 8 7 -5 9 -4 11 3 6 7 -4 12 -1 12 8 0 9 3 16 6 16 3 0 3 -11 0
-24z m42 -1 c-3 -3 -9 2 -12 12 -6 14 -5 15 5 6 7 -7 10 -15 7 -18z m-1148 -5
c0 12 2 12 9 2 4 -8 12 -14 17 -15 5 -1 8 -10 7 -20 -2 -12 1 -16 9 -11 7 4 8
3 4 -5 -12 -18 -27 -2 -21 22 2 12 2 17 -1 10 -3 -7 -12 -9 -20 -6 -8 3 -14 0
-14 -7 0 -6 5 -8 10 -5 6 3 10 1 10 -4 0 -17 -18 -13 -28 7 -12 23 -4 51 9 31
7 -12 9 -11 9 1z m180 0 c0 -5 -4 -10 -10 -10 -5 0 -10 5 -10 10 0 6 5 10 10
10 6 0 10 -4 10 -10z m217 -12 c-3 -8 -6 -5 -6 6 -1 11 2 17 5 13 3 -3 4 -12
1 -19z m293 12 c0 -5 -2 -10 -4 -10 -3 0 -8 5 -11 10 -3 6 -1 10 4 10 6 0 11
-4 11 -10z m-245 -23 c1 -7 7 -11 14 -9 7 1 9 -2 6 -9 -5 -7 -11 -7 -17 -1 -6
6 -16 9 -22 8 -6 -2 -8 -1 -3 1 4 3 7 12 7 21 0 17 15 7 15 -11z m148 16 c-7
-2 -13 -13 -13 -24 0 -10 -4 -19 -9 -19 -5 0 -8 8 -6 18 2 9 4 20 4 25 1 4 9
7 19 6 10 0 12 -3 5 -6z m-524 -35 c-1 -31 -1 -31 -8 -8 -5 14 -6 28 -4 33 9
15 13 6 12 -25z m595 17 c3 -8 1 -15 -4 -15 -6 0 -10 7 -10 15 0 8 2 15 4 15
2 0 6 -7 10 -15z m-54 -16 c0 -5 -4 -9 -8 -9 -5 0 -9 7 -9 15 0 8 4 12 9 9 4
-3 8 -9 8 -15z m410 -24 l-10 -30 5 31 c3 28 1 31 -15 27 -23 -6 -26 -23 -8
-41 8 -8 8 -12 1 -12 -11 0 -23 22 -23 41 0 12 43 29 52 20 4 -3 3 -20 -2 -36z
m-499 -80 c6 15 8 12 8 -17 1 -30 -3 -38 -16 -38 -16 0 -16 2 -3 11 11 8 12
12 3 16 -7 2 -12 14 -12 26 1 21 2 21 7 2 l5 -20 8 20z m49 -4 c0 -11 -6 -22
-12 -24 -10 -4 -9 -8 2 -17 13 -10 13 -11 0 -7 -17 4 -25 30 -16 53 8 21 26
17 26 -5z m22 -6 c-2 -14 -6 -25 -8 -25 -2 0 -4 11 -4 25 0 14 4 25 9 25 4 0
6 -11 3 -25z m-113 -17 c-12 -21 -13 -21 -17 -4 -2 10 2 22 9 27 20 12 22 4 8
-23z m148 -10 c-3 -7 -5 -2 -5 12 0 14 2 19 5 13 2 -7 2 -19 0 -25z"/>
<path d="M1162 2328 c-15 -15 -15 -51 0 -66 35 -35 102 14 78 57 -12 24 -58
29 -78 9z"/>
<path d="M2575 2120 c-8 -13 5 -13 25 0 13 8 13 10 -2 10 -9 0 -20 -4 -23 -10z"/>
<path d="M880 2021 c0 -25 4 -29 25 -27 20 1 25 6 25 29 0 22 -4 27 -25 27
-21 0 -25 -5 -25 -29z"/>
<path d="M1528 1703 c7 -3 16 -2 19 1 4 3 -2 6 -13 5 -11 0 -14 -3 -6 -6z"/>
<path d="M2436 1624 c-9 -24 -8 -26 16 -22 29 4 38 38 10 38 -11 0 -23 -7 -26
-16z"/>
<path d="M733 1653 c-18 -7 -16 -40 3 -47 9 -3 20 -4 25 0 23 14 -3 56 -28 47z"/>
<path d="M832 1578 c2 -13 11 -24 21 -26 22 -4 35 27 16 39 -25 16 -41 10 -37
-13z"/>
<path d="M857 1223 c-13 -12 -7 -41 10 -47 21 -8 48 17 40 38 -6 16 -38 22
-50 9z"/>
<path d="M600 1104 c0 -9 7 -14 17 -12 25 5 28 28 4 28 -12 0 -21 -6 -21 -16z"/>
<path d="M2495 990 c3 -5 8 -10 11 -10 2 0 4 5 4 10 0 6 -5 10 -11 10 -5 0 -7
-4 -4 -10z"/>
</g>
</svg>
